<svg id="Layer_1" data-name="Layer 1" xmlns="http://www.w3.org/2000/svg" viewBox="0 0 384 384"><defs><style>.cls-1{fill:#549aff;}.cls-2{fill:#010101;}.cls-3{fill:#030303;}</style></defs><path d="M328.5,384H68.25V346.83H63.18q-29.37,0-58.74,0c-1.48,0-3-.2-4.44-.31V264.75a10.55,10.55,0,0,0,1.18-2.15c5.29-19.13,17.92-29.91,37.33-33.2,9.82-1.66,19.6-3.58,29.3-5.37.44-3.68.51-3.79-2.93-5.68-14.66-8.07-24-20-27-36.66-.49-2.67-.62-5.41-.91-8.09-12.09-1.24-20.33-7-23.71-18.79-1.73-6-.64-11.86,1.69-17.54,3.21-5.05,7.08-9.5,12.91-11.45,3.38-1.13,7.48-.67,10.45-2.35s4.75-5.84,7.77-7.72c3.48-2.17,8.18-2.41,11.59-4.65s5.66-6.75,9.21-9c10.22-6.41,23-2.63,29.2,8.26,3.7,6.57,8.72,11.75,16.21,12.65,7.31.88,14.8.19,22.53.19-2.66-6.49-7.48-10-14.12-11.54-1.08-.24-2.74-1.22-2.81-2-.31-3.43-.14-6.89-.14-10.61,1.67.12,2.79.12,3.87.29q19.13,3.1,25.54,21.39c.6,1.72,1,3,3.35,3.2,8.68.74,15.21,5.11,19.77,12.49,7.92,14.05.76,35.12-21.32,37.25-.5,3.54-.75,7.16-1.55,10.64-3.57,15.43-12.78,26.54-26.57,34-2.22,1.21-4.12,2.47-2.63,5.68,9.9,1.81,19.94,3.68,30,5.47,19.24,3.42,32.7,16,36.67,34.33.6,2.75.83,5.58,1.22,8.33h12.12V247.72h55.48V198H210.44l24.31-31c-.77-.71-1.39-1.32-2-1.88-28.82-24.75-40.42-56.05-31.86-93C209.58,34.47,234.35,11.29,272,2c2.84-.7,5.69-1.35,8.54-2h20.25a9.37,9.37,0,0,0,1.94.73,92.83,92.83,0,0,1,77.65,66.7c1.47,5.2,2.45,10.54,3.66,15.82v21a23,23,0,0,0-1.27,3.69,89.57,89.57,0,0,1-19.59,43.49c-4.65,5.63-9.94,10.73-15.11,16.25l24,30.6H328.32V203q0,88.43,0,176.85C328.33,381.26,328.44,382.63,328.5,384Zm18-198.15c-18.81-23.95-37-47.07-55.42-70.53l-55.57,70.76h30.55v74.16H210.49v24.93H148.44V309.8H80.69v61.54H315.88V185.85ZM136.39,297.24V272.43h37a47.51,47.51,0,0,0-.53-5.52c-4.49-20.06-19.94-25.77-37.9-26.56-4.8,14.33-9.6,28.69-14.7,43.94L92.38,255.82l-27.2,27.37L50.69,239.85l-10.15,1.72c-17.94,3-28.09,14.87-28.13,33.12q-.06,27.74,0,55.48c0,1.33.12,2.66.18,4.07h55.7v-37ZM93,239.3c3.76-3.92,7.16-7.24,10.27-10.81a7.11,7.11,0,0,0,1.84-4.52c-.52-7.66,2.53-13,9.44-16.31a36.27,36.27,0,0,0,5.12-3.12c9.32-6.48,15.44-15.28,16.08-26.65.76-13.45.36-27,.44-40.46,0-.22-.2-.44-.54-1.12-4.73,0-9.69-.1-14.65,0-15.91.38-28-5.85-35.8-20-3.67-6.65-12-6.41-15.73.19a11.68,11.68,0,0,0-1.18,2.34c-1.18,4.09-3.73,5.32-8,5.11-7.4-.37-10.76,3.26-10.77,10.65,0,12.88-.08,25.75.06,38.63a42.68,42.68,0,0,0,1.23,9.61C53.7,194.71,61.47,202.66,72,208.13c6.14,3.18,9,8,8.51,14.88a6.71,6.71,0,0,0,1.09,4.46C85.07,231.4,88.85,235,93,239.3Zm246.54-82.37c27.05-18.84,38.77-56.79,27.93-89.42a80.47,80.47,0,0,0-79.18-55c-35.86,1.4-66.59,26-75.22,60.33-9.05,36,7.74,68.93,29.65,84l7.24-9.3c-33.63-26.26-34.92-72.85-8.91-100.81,25.57-27.5,68.28-29.42,95.76-4.22,13.71,12.57,21.39,28.26,22.25,46.81,1.11,23.84-8.3,43.18-26.95,58.19Zm-15.34-19.52c18.64-12.22,27.14-38.58,20-61.28A55.76,55.76,0,0,0,237,79.6c-5.87,24.13,5.34,47.58,21.09,57.7l7.3-9.27c-22.69-18-21.83-47.4-6.29-64.25a43.25,43.25,0,0,1,61.81-2.34c16.87,15.68,20.49,47-3.9,66.69ZM309,118A30.84,30.84,0,1,0,261,85.56c-2.95,12.6,2.32,26.52,12.37,32.21L291.09,95.3ZM115.22,260.32,122.93,237c-4,0-8-1.19-10.39.26-4.16,2.49-7.33,6.62-10.49,9.65ZM63,237.55l7.65,22.85,13.22-13.18c-3.35-3.27-7-6.86-10.69-10.34a3.25,3.25,0,0,0-2.35-.68C68.38,236.5,66,237,63,237.55ZM36.92,161V136.73a11.66,11.66,0,0,0-12.11,10.75C24.15,154.34,28.85,159.81,36.92,161Zm111.85-.22c7.39-.37,12.62-5.87,12.29-12.59a11.78,11.78,0,0,0-12.29-11.49Z"/><path class="cls-1" d="M14.94,137.27c-.58-1.9-1.55-3.78-1.67-5.7-.79-13.31-2.6-26.71,3.88-39.33A44.69,44.69,0,0,1,43,69.68,27.61,27.61,0,0,0,50.27,66c31.36-23.3,69.93-21.75,99.58,3.84,8.06,7,15.15,14.47,19.26,24.47a56.3,56.3,0,0,1,2.27,36.36c-.49,1.92-.74,3.9-1.11,5.85-4.56-7.38-11.09-11.75-19.77-12.49-2.34-.2-2.75-1.48-3.35-3.2q-6.39-18.27-25.54-21.39c-1.08-.17-2.2-.17-3.87-.29,0,3.72-.17,7.18.14,10.61.07.76,1.73,1.74,2.81,2,6.64,1.51,11.46,5,14.12,11.54-7.73,0-15.22.69-22.53-.19-7.49-.9-12.51-6.08-16.21-12.65-6.15-10.89-19-14.67-29.2-8.26-3.55,2.22-5.7,6.66-9.21,9s-8.11,2.48-11.59,4.65c-3,1.88-4.71,6-7.77,7.72s-7.07,1.22-10.45,2.35C22,127.77,18.15,132.22,14.94,137.27Z"/><path class="cls-2" d="M278.57,347.07v12H204.73v-12Z"/><path class="cls-3" d="M291.32,347.05h12V359h-12Z"/><path d="M106.17,177l10.49,5.27c-3.17,9.14-12.67,15.66-22.91,15.88-11.09.24-20.72-5.84-24.69-15.82L79.63,177C86.24,188.94,100,188.42,106.17,177Z"/><path class="cls-2" d="M74.26,148.8a6.05,6.05,0,0,1-6.38,5.93,6.12,6.12,0,0,1,.33-12.23A6.12,6.12,0,0,1,74.26,148.8Z"/><path class="cls-2" d="M123.79,148.55a6.1,6.1,0,1,1-6.28-6.05A6.08,6.08,0,0,1,123.79,148.55Z"/></svg>